<svg width="16" height="17" viewBox="0 0 16 17" fill="none" xmlns="http://www.w3.org/2000/svg">
<path d="M4.82857 0.587695L4.57143 1.0625H1.14286C0.510714 1.0625 0 1.5373 0 2.125C0 2.7127 0.510714 3.1875 1.14286 3.1875H14.8571C15.4893 3.1875 16 2.7127 16 2.125C16 1.5373 15.4893 1.0625 14.8571 1.0625H11.4286L11.1714 0.587695C10.9786 0.225781 10.5821 0 10.15 0H5.85C5.41786 0 5.02143 0.225781 4.82857 0.587695ZM14.8571 4.25H1.14286L1.9 15.5059C1.95714 16.3459 2.70714 17 3.61071 17H12.3893C13.2929 17 14.0429 16.3459 14.1 15.5059L14.8571 4.25Z" fill="white"/>
</svg>
